<svg xmlns="http://www.w3.org/2000/svg" id="Capa_1" data-name="Capa 1" viewBox="0 0 256 256">
    <defs>
        <style>.cls-1{fill:#fff}</style>
    </defs>
    <path d="M15.88 10.55c-2.82 0-5.11 2.29-5.11 5.11s2.29 5.11 5.11 5.11 5.11-2.29 5.11-5.11-2.29-5.11-5.11-5.11Z" class="cls-1"/>
    <path d="M17.93 0C8.03 0 0 8.03 0 17.92s8.03 17.92 17.93 17.92 17.93-8.02 17.93-17.92S27.83 0 17.93 0Zm10.86 28.79c-.58.58-1.26.88-1.88.88-.44 0-.84-.15-1.14-.46l-5.4-5.33c-1.4.78-2.97 1.19-4.59 1.19-5.19 0-9.42-4.22-9.42-9.42s4.22-9.41 9.41-9.41 9.42 4.22 9.42 9.42c0 1.71-.46 3.36-1.34 4.82l4.2 4.14 1.15 1.14c.74.74.56 2.04-.42 3.02Z" class="cls-1"/>
</svg>