<svg xmlns="http://www.w3.org/2000/svg" xml:space="preserve" id="Capa_1" x="0" y="0" style="enable-background:new 0 0 77.53 71.95" version="1.1" viewBox="0 0 77.53 71.95">
	<style>.st0{fill:#efeef7}</style>
	<path d="M5.5 70.23H2.41l-.58 1.72H0l2.99-8.39h1.98l2.97 8.39h-1.9l-.54-1.72zm-.49-1.45-1.05-3.3-1.08 3.3h2.13zM20.3 63.56v1.49h-2.51v6.9h-1.76v-6.9h-2.52v-1.49h6.79zM32.39 71.95v-3.74h-3.28v3.74h-1.74v-8.39h1.74v3.2h3.28v-3.2h1.74v8.39h-1.74zM47.7 68.29h-4.07v2.16h4.64v1.51h-6.36v-8.39h6.15v1.49h-4.44v1.78h4.07v1.45zM62.48 71.95h-1.75l-3.43-5.96v5.96h-1.63v-8.39h1.84l3.34 5.86v-5.86h1.63v8.39zM75.09 70.23H72l-.58 1.72h-1.83l2.99-8.39h1.98l2.97 8.39h-1.9l-.54-1.72zm-.49-1.45-1.05-3.3-1.08 3.3h2.13zM64.87 56.73c-1.4 0-2.66-.01-3.93.01-.31.01-.44-.17-.58-.38-.86-1.24-1.47-2.61-2.18-3.93-.9-1.66-1.74-3.36-2.55-5.06-.83-1.75-1.61-3.54-2.38-5.32-.75-1.73-1.55-3.45-2.18-5.22-.64-1.8-1.37-3.57-1.92-5.41-.34-1.14-.78-2.26-1.11-3.41-.76-2.59-1.53-5.17-2.11-7.82-.3-1.36-.64-2.72-.89-4.08-.37-2-.6-4.03-.9-6.05-.31-2.03-.64-4.06-.52-6.12.03-.48-.16-.66-.62-.64-.53.02-1.08.07-1.6 0-.8-.11-.94.25-.89.95.2 2.91.43 5.8.83 8.7.42 3.08 1.08 6.09 1.72 9.11.56 2.67 1.35 5.28 2.12 7.89.58 1.96 1.13 3.95 1.9 5.85 1.04 2.57 1.98 5.17 3.1 7.7 1.15 2.6 2.42 5.15 3.62 7.72.86 1.84 1.96 3.57 3.04 5.5-1.43 0-2.7.02-3.98-.01-.47-.01-.59-.48-.76-.81-1.45-2.86-2.98-5.7-4.3-8.63-1.28-2.83-2.5-5.68-3.59-8.6-.72-1.93-1.43-3.87-2.11-5.81-.67-1.91-1.24-3.86-1.73-5.83-.28-1.1-.6-2.21-.92-3.3-.26-.9-.28-1.87-.79-2.83-.51 1.54-.8 3.01-1.16 4.48-.27 1.11-.64 2.2-.97 3.29-.57 1.89-1.09 3.8-1.73 5.67-.63 1.84-1.35 3.64-2.07 5.45-.63 1.57-1.24 3.15-1.94 4.69-1.2 2.65-2.34 5.33-3.72 7.89-.64 1.19-1.26 2.39-1.86 3.6-.24.49-.51.8-1.13.77-.95-.05-1.91-.03-2.87-.01-.46.01-.64-.09-.38-.56 1-1.85 2.04-3.69 2.99-5.56 1.07-2.13 2.11-4.27 3.08-6.45.93-2.08 1.8-4.19 2.6-6.32.72-1.9 1.37-3.82 2.01-5.74.5-1.5.96-3.02 1.4-4.54.76-2.62 1.43-5.26 1.96-7.94.2-1.04.41-2.08.6-3.12.38-2.09.71-4.19.9-6.31.18-1.98.44-3.96.52-5.96.03-.71-.22-.93-.9-.91-2.76.07-2.26-.44-2.33 2.2-.08 3.04-.57 6.02-1.05 9.01-.47 2.95-1.13 5.86-1.88 8.75-.54 2.1-1.24 4.16-1.86 6.25-.73 2.45-1.61 4.85-2.54 7.23-.82 2.09-1.69 4.16-2.61 6.21-.95 2.15-1.98 4.26-2.96 6.4-.73 1.58-1.6 3.1-2.41 4.65-.33.64-.7 1.26-1.03 1.89-.29.56-.63.9-1.36.83-.89-.08-1.8-.03-2.7-.02-.52.01-.71-.02-.38-.64 1.7-3.11 3.4-6.22 4.96-9.4 1.39-2.84 2.66-5.74 3.85-8.67 1.22-3 2.36-6.05 3.38-9.12.92-2.77 1.72-5.58 2.41-8.41.63-2.57 1.15-5.17 1.54-7.79.41-2.77.84-5.54.84-8.36 0-.73-.17-1.04-.97-1.04-2.06-.01-2.15-.05-2.3 1.97-.17 2.43-.47 4.85-.76 7.27-.16 1.3-.5 2.58-.77 3.86-.6 2.86-1.35 5.7-2.12 8.52-.42 1.55-1.01 3.06-1.53 4.58-.61 1.79-1.19 3.59-1.85 5.35-.58 1.56-1.24 3.09-1.91 4.61-.96 2.19-1.93 4.37-2.94 6.54-.67 1.43-1.39 2.83-2.12 4.24-.97 1.9-1.99 3.77-2.94 5.68-.3.61-.65.88-1.35.84-.92-.06-1.86-.04-2.79 0-.57.02-.7-.13-.4-.64.87-1.51 1.75-3.02 2.55-4.56 1.04-2.01 2.04-4.04 3.06-6.06.92-1.84 1.76-3.71 2.6-5.58.88-1.97 1.76-3.95 2.44-6.02.58-1.77 1.36-3.47 1.95-5.24.69-2.08 1.44-4.14 1.91-6.29.2-.92.5-1.83.75-2.73.96-3.39 1.55-6.87 2.02-10.34.38-2.79.72-5.64.57-8.48-.01-.65.18-.81.81-.81 9.94.02 19.87.02 29.81 0 .65 0 .86.15.85.83-.04 3.68.37 7.32.94 10.96.43 2.71.99 5.37 1.65 8.02.76 3.05 1.69 6.04 2.71 9.01.88 2.57 1.83 5.1 2.85 7.62 1.04 2.57 2.23 5.06 3.37 7.59 1.07 2.39 2.29 4.71 3.44 7.06.93 1.89 2.06 3.69 3.16 5.63-1.39 0-2.67-.01-3.95.01-.35 0-.51-.21-.64-.46-1.03-1.93-2.13-3.82-3.07-5.8-.84-1.75-1.76-3.46-2.59-5.21-1.07-2.25-2.06-4.54-3.02-6.84-.88-2.11-1.68-4.24-2.49-6.38-.83-2.18-1.5-4.42-2.19-6.64-.81-2.61-1.44-5.26-2.06-7.92-.29-1.23-.54-2.47-.72-3.7-.33-2.3-.92-4.56-.94-6.9-.01-.98-.13-1.96-.18-2.94-.02-.4-.15-.64-.59-.63-.73.02-1.46.03-2.19.02-.42 0-.44.27-.41.57.21 2.15.11 4.32.5 6.45.33 1.81.5 3.65.88 5.45.62 2.94 1.25 5.88 2.07 8.77.45 1.57.91 3.15 1.49 4.68.67 1.79 1.22 3.62 1.88 5.42.56 1.51 1.17 3 1.81 4.48 1.06 2.44 2.08 4.9 3.28 7.26 1.02 2.02 1.98 4.07 3.12 6.04.75 1.36 1.46 2.76 2.33 4.28z" class="st0"/>
</svg>