<?xml version="1.0" encoding="UTF-8"?>
<svg id="Capa_1" data-name="Capa 1" xmlns="http://www.w3.org/2000/svg" viewBox="0 0 259.24 124.26">
  <defs>
    <style>
      .cls-1 {
        opacity: .1;
      }

      .cls-1, .cls-2 {
        fill: #060606;
      }

      .cls-3 {
        fill: #5b5ea3;
      }

      .cls-4 {
        fill: #7276b4;
      }

      .cls-2 {
        opacity: .15;
      }

      .cls-5 {
        fill: #fff;
        opacity: .4;
      }
    </style>
  </defs>
  <ellipse class="cls-2" cx="129.62" cy="110.35" rx="129.62" ry="13.9"/>
  <g>
    <rect class="cls-3" x="101.64" y="42.74" width="48.18" height="15.83"/>
    <g>
      <g>
        <circle class="cls-5" cx="58.32" cy="53.82" r="46.18"/>
        <path class="cls-1" d="m28.11,57.13c0,19.4,11.97,36.01,28.93,42.84-24.91-.67-44.9-21.08-44.9-46.16S32.82,7.64,58.32,7.64c6.09,0,11.92,1.18,17.24,3.33-.42-.02-.85-.02-1.27-.02-25.51,0-46.18,20.67-46.18,46.18Z"/>
      </g>
      <g>
        <circle class="cls-5" cx="198.09" cy="53.82" r="46.18"/>
        <path class="cls-1" d="m167.89,57.13c0,19.4,11.97,36.01,28.93,42.84-24.91-.67-44.9-21.08-44.9-46.16S172.59,7.64,198.09,7.64c6.09,0,11.92,1.18,17.24,3.33-.42-.02-.85-.02-1.27-.02-25.51,0-46.18,20.67-46.18,46.18Z"/>
      </g>
      <path class="cls-4" d="m58.32,107.63c-29.68,0-53.82-24.14-53.82-53.82S28.64,0,58.32,0s53.82,24.14,53.82,53.82-24.14,53.82-53.82,53.82Zm0-91.81c-20.95,0-37.99,17.04-37.99,37.99s17.04,37.99,37.99,37.99,37.99-17.04,37.99-37.99S79.26,15.83,58.32,15.83Z"/>
      <path class="cls-4" d="m198.09,108.43c-29.68,0-53.82-24.14-53.82-53.82S168.42.79,198.09.79s53.82,24.14,53.82,53.82-24.14,53.82-53.82,53.82Zm0-91.81c-20.95,0-37.99,17.04-37.99,37.99s17.04,37.99,37.99,37.99,37.99-17.04,37.99-37.99-17.04-37.99-37.99-37.99Z"/>
    </g>
  </g>
</svg>