<?xml version="1.0" encoding="UTF-8"?>
<svg id="Capa_1" data-name="Capa 1" xmlns="http://www.w3.org/2000/svg" xmlns:xlink="http://www.w3.org/1999/xlink" viewBox="0 0 632.74 612.38">
  <defs>
    <style>
      .cls-1, .cls-2 {
        fill: none;
      }

      .cls-3 {
        fill: #6965a7;
      }

      .cls-4 {
        fill: #fff;
      }

      .cls-5 {
        fill: #e5e5e5;
      }

      .cls-6 {
        fill: #85b2a3;
      }

      .cls-7 {
        fill: #33335f;
      }

      .cls-8 {
        fill: #a7a6d1;
      }

      .cls-9 {
        fill: #d8869d;
      }

      .cls-10 {
        fill: #d1697e;
      }

      .cls-11 {
        fill: #95c5b3;
      }

      .cls-12 {
        fill: #5b5ea3;
      }

      .cls-13 {
        fill: #2e3169;
      }

      .cls-14 {
        fill: #494793;
      }

      .cls-15 {
        fill: #7276b4;
      }

      .cls-2 {
        clip-path: url(#clippath);
      }
    </style>
    <clipPath id="clippath">
      <rect class="cls-1" y="0" width="632.74" height="612.38"/>
    </clipPath>
  </defs>
  <g class="cls-2">
    <g>
      <circle class="cls-8" cx="402.68" cy="617.89" r="341.87"/>
      <g>
        <g>
          <rect class="cls-10" x="405.53" y="78.62" width="15.95" height="241.95" transform="translate(827.02 399.19) rotate(180)"/>
          <rect class="cls-13" x="35.18" y="122.88" width="39.56" height="197.69" transform="translate(109.92 443.45) rotate(180)"/>
          <rect class="cls-13" x="530.5" y="122.88" width="39.56" height="197.69" transform="translate(1100.56 443.45) rotate(180)"/>
          <rect class="cls-6" x="382.91" y="46.16" width="22.84" height="274.41" transform="translate(788.66 366.73) rotate(180)"/>
          <rect class="cls-10" x="74.53" y="27.47" width="22.84" height="293.1" transform="translate(171.89 348.04) rotate(180)"/>
          <g>
            <rect class="cls-12" x="362.26" y="99.27" width="20.87" height="221.3" transform="translate(745.38 419.84) rotate(180)"/>
            <rect class="cls-15" x="362.26" y="99.27" width="20.87" height="49.18" transform="translate(745.38 247.72) rotate(180)"/>
          </g>
          <g>
            <rect class="cls-12" x="5.89" y="90.42" width="29.72" height="230.15" transform="translate(41.5 410.99) rotate(180)"/>
            <rect class="cls-15" x="5.89" y="90.42" width="29.72" height="51.14" transform="translate(41.5 231.98) rotate(180)"/>
          </g>
          <g>
            <rect class="cls-12" x="570.66" y="90.42" width="29.72" height="230.15" transform="translate(1171.03 410.99) rotate(180)"/>
            <rect class="cls-15" x="570.66" y="90.42" width="29.72" height="51.14" transform="translate(1171.03 231.98) rotate(180)"/>
          </g>
          <g>
            <rect class="cls-12" x="442.95" y="49.8" width="28.36" height="270.76" transform="translate(941.5 278.24) rotate(168.82)"/>
            <rect class="cls-15" x="422.54" y="51.8" width="28.36" height="60.17" transform="translate(881.03 77.56) rotate(168.82)"/>
          </g>
          <g>
            <rect class="cls-12" x="243.07" y="11.73" width="74.96" height="308.84" transform="translate(593.41 257.97) rotate(165.72)"/>
            <rect class="cls-15" x="230.82" y="40.15" width="54.1" height="73.77" transform="translate(526.76 88.07) rotate(165.72)"/>
            <rect class="cls-4" x="276.06" y="290.91" width="74.96" height="9.74" transform="translate(690.36 505.08) rotate(165.72)"/>
          </g>
          <g>
            <rect class="cls-6" x="97.15" y="53.73" width="74.96" height="266.84" transform="translate(269.26 374.3) rotate(180)"/>
            <rect class="cls-11" x="107.97" y="182.27" width="54.1" height="118.12" transform="translate(270.03 482.67) rotate(180)"/>
          </g>
          <g>
            <rect class="cls-10" x="600.64" y="53.73" width="74.96" height="266.84" transform="translate(1276.24 374.3) rotate(180)"/>
            <rect class="cls-9" x="611.46" y="182.27" width="54.1" height="118.12" transform="translate(1277.01 482.67) rotate(180)"/>
          </g>
          <g>
            <rect class="cls-6" x="498.87" y="61.04" width="31.72" height="259.53" transform="translate(1029.46 381.61) rotate(180)"/>
            <rect class="cls-11" x="503.45" y="186.06" width="22.89" height="114.89" transform="translate(1029.79 487) rotate(180)"/>
          </g>
          <g>
            <rect class="cls-14" x="171.37" y="11.73" width="32.67" height="308.84" transform="translate(375.42 332.3) rotate(180)"/>
            <rect class="cls-13" x="171.37" y="65.88" width="32.67" height="64.86" transform="translate(375.42 196.62) rotate(180)"/>
          </g>
        </g>
        <rect class="cls-7" x="6.1" y="315.34" width="770.62" height="28.08"/>
      </g>
      <g>
        <g>
          <g>
            <g>
              <g>
                <path class="cls-9" d="m509.69,298.95c.19-3.03,8.23-6.49,10.5-6.86,13.55-2.19,17.9,16.2,19.36,25.94,2.04,13.6.29,28.75-6.2,41.02-6.4,12.11-18.25,8.43-27.47,1.48,0,0,3.81-61.51,3.81-61.59Z"/>
                <path class="cls-10" d="m512.04,330.92s-.08,0-.12,0c-.97-.06-1.7-.9-1.64-1.87.77-11.83,3.77-18.89,8.9-20.99,6.13-2.5,12.53,3.13,12.8,3.37.72.65.79,1.76.14,2.48-.65.72-1.76.79-2.48.14-.09-.08-5.06-4.41-9.13-2.73-2.6,1.07-5.87,5.05-6.71,17.96-.06.93-.83,1.64-1.75,1.64Z"/>
              </g>
              <g>
                <path class="cls-9" d="m285.71,298.95c-.19-3.03-8.23-6.49-10.5-6.86-13.55-2.19-17.9,16.2-19.36,25.94-2.04,13.6-.29,28.75,6.2,41.02,6.4,12.11,18.25,8.43,27.47,1.48,0,0-3.81-61.51-3.81-61.59Z"/>
                <path class="cls-10" d="m283.37,330.92s.08,0,.12,0c.97-.06,1.7-.9,1.64-1.87-.77-11.83-3.77-18.89-8.9-20.99-6.13-2.5-12.53,3.13-12.8,3.37-.72.65-.79,1.76-.14,2.48.65.72,1.76.79,2.48.14.09-.08,5.06-4.41,9.13-2.73,2.6,1.07,5.87,5.05,6.71,17.96.06.93.84,1.64,1.75,1.64Z"/>
              </g>
              <g>
                <path class="cls-9" d="m479.11,539.14c-87.87,112.61-167.22,6.44-167.22,6.44,0,0,.4-10.84.97-27.05,1.69-47.21,4.99-139.99,4.99-143.04l149.54-17.03,4.89-.56,6.82,181.24Z"/>
                <path class="cls-10" d="m467.4,358.47c7.85,72.44-35.21,220.77-102.61,204.13,0,0-32.83,7.21-51.92-44.06,1.69-47.21,4.99-139.99,4.99-143.04l149.54-17.03Z"/>
              </g>
              <path class="cls-9" d="m282.57,362c5.23,27.22,7.27,49.63,27.7,70.05,17.44,17.43,40.25,29.56,64.58,33.75,24.81,4.27,51.98,1.27,74.21-11.04,31.65-17.52,48-53.8,56.48-87.43,7.85-31.15,10.24-64.07,8.29-96.09-.11-1.89-.25-3.78-.4-5.67-.75-9.38-1.87-18.73-3.31-28.02-1.37-8.82-1.57-22.56-5.86-30.4,0,0-57.19-104.7-163.64-56.31,0,0-54.55,9.68-59.83,97.66,0,0-2.64,90.61,1.76,113.49Z"/>
              <circle class="cls-10" cx="395.4" cy="302.4" r="17.82"/>
            </g>
            <path class="cls-14" d="m279.72,294.9s-5.5-38,3.88-71.8c0,0,98.69-11,155.69-77.5,0,0,38.33,84.17,74.27,110.49l-.16,49.12s4.89-18.64,18.6-8.37c0,0,63.11-79.04,6.1-170.25,0,0-28.5-28.5-60.81-28.5-4.54,0-16.91-11.66-21.06-13.99-17.49-9.83-36.64-16.96-56.45-20.29-46.86-7.87-99.71,6.83-132.84,42.34-36.83,39.48-45.21,103.28-26.46,152.93,5.45,14.42,13.05,27.97,22.09,40.43l17.14-4.61Z"/>
            <path class="cls-3" d="m511.51,282.41c-1.88,0-3.71-.92-4.8-2.62-14.68-22.83-56.16-100.77-68.82-124.66-48.54,47.88-99.38,64.64-134.03,70.2-39.13,6.28-66.14.19-67.27-.08-3.07-.71-4.97-3.77-4.26-6.84.71-3.07,3.77-4.97,6.84-4.26.49.11,26.53,5.85,63.42-.16,34.11-5.56,84.8-22.63,132.6-72.34l5.47-5.69,3.68,6.98c.55,1.04,55.19,104.6,71.96,130.69,1.7,2.65.94,6.18-1.71,7.88-.95.61-2.02.91-3.08.91Z"/>
            <path class="cls-3" d="m255.54,185.81c-6.31,0-10.1-.29-10.52-.32-3.14-.25-5.47-3-5.22-6.14.25-3.14,2.97-5.47,6.13-5.23,1.14.09,115.12,8.1,169.56-77.19,1.69-2.66,5.22-3.43,7.87-1.74,2.65,1.69,3.43,5.22,1.74,7.87-24.12,37.78-62.94,64.02-112.26,75.87-24.27,5.83-45.32,6.88-57.3,6.88Z"/>
            <path class="cls-3" d="m251.17,141.8c-2.92,0-5.41-2.23-5.67-5.2-.27-3.14,2.04-5.9,5.18-6.18,1.05-.09,105.83-9.93,138.13-63.76,1.62-2.7,5.12-3.58,7.82-1.95,2.7,1.62,3.57,5.12,1.95,7.82-35.29,58.82-142.36,68.85-146.9,69.25-.17.01-.34.02-.5.02Z"/>
            <path class="cls-3" d="m518.98,282.37c-.74,0-1.49-.14-2.22-.45-2.9-1.23-4.26-4.57-3.03-7.47,30.69-72.53.6-133.26.29-133.86-1.43-2.8-.31-6.24,2.49-7.67,2.8-1.43,6.23-.32,7.66,2.48,1.36,2.65,32.9,65.88.06,143.49-.92,2.17-3.03,3.48-5.25,3.48Z"/>
            <g>
              <g>
                <path class="cls-7" d="m331.54,320.92c-29.88,0-54.19-24.31-54.19-54.19s24.31-54.19,54.19-54.19,54.19,24.31,54.19,54.19-24.31,54.19-54.19,54.19Zm0-92.43c-21.09,0-38.25,17.16-38.25,38.25s17.16,38.25,38.25,38.25,38.25-17.16,38.25-38.25-17.16-38.25-38.25-38.25Z"/>
                <path class="cls-7" d="m459.83,321.72c-29.88,0-54.19-24.31-54.19-54.19s24.31-54.19,54.19-54.19,54.19,24.31,54.19,54.19-24.31,54.19-54.19,54.19Zm0-92.43c-21.09,0-38.25,17.16-38.25,38.25s17.16,38.25,38.25,38.25,38.25-17.16,38.25-38.25-17.16-38.25-38.25-38.25Z"/>
              </g>
              <rect class="cls-7" x="384.13" y="255.58" width="27.09" height="15.94"/>
            </g>
          </g>
          <g>
            <polygon class="cls-5" points="156.99 306.54 230.37 295.18 383.64 352.11 412.11 352.11 606.99 286.42 635.46 303.94 418.68 376.19 363.94 376.19 156.99 306.54"/>
            <g>
              <rect class="cls-12" x="359.56" y="351.62" width="70.07" height="326.75"/>
              <polygon class="cls-15" points="361.75 678.37 142.78 628.5 142.78 301.75 361.75 351.62 361.75 678.37"/>
              <polygon class="cls-15" points="429.63 678.37 648.59 628.5 648.59 301.75 429.63 351.62 429.63 678.37"/>
              <rect class="cls-4" x="359.56" y="567.48" width="70.07" height="110.89"/>
              <polygon class="cls-8" points="462.01 622.67 616.21 587.55 616.21 357.44 462.01 392.56 462.01 622.67"/>
              <polygon class="cls-8" points="328.94 622.67 174.73 587.55 174.73 357.44 328.94 392.56 328.94 622.67"/>
            </g>
          </g>
        </g>
        <g>
          <path class="cls-9" d="m347.25,554.93c-.37,1.8-1.67,3.26-3.01,4.54-6.89,6.59-15.63,9.79-24.14,13.69-15.98,7.32-33.05,14.42-50.02,19.12,10.24-2.83,20.74-5.09,31.26-6.6,3.99-.57,42.47-3.99,31.83,10.25-1.26,1.67-3.17,2.72-5.04,3.63-9.17,4.47-18.99,7.21-28.91,9.45-8.03,1.83-19.46,1.87-26.9,5.22l-74.65,33.66-44.41,27.68-32.2-60.34s11.43-10.8,28.59-59.81c7.94-22.68,17.69-41.99,19.54-64.9.46-5.52.46-11.27-.14-17.3-.23-2.42-.52-4.97-.2-7.33.18-1.39.57-2.71,1.28-3.93,7.03-11.91,18.69,9.86,21.13,15.24,3.74,8.26,5.84,17.41,5.73,26.49-.07,8.22-4.25,16.54-3.29,24.67,1.5,12.67,15.81,9.47,23.85,5.68,23.71-11.18,47.12-23,70.19-35.42,4.18-2.26,8.56-4.63,13.35-5.18,11.46-1.32,16.52,8.12,8.67,16.39-7.35,7.78-15.77,12.39-24.64,18.33-5.93,3.97-15.74,9.43-21.22,14.99,8.28-8.17,25.97-14.35,35.62-18.57,7.73-3.4,17.25-7.83,25.93-7.4,13.15.64,11.11,10.86,2.3,18.19-13.9,11.55-30.21,19.69-46.65,27.27,10.13-4.57,20.31-9.04,30.87-12.57,6.91-2.31,15.01-5.32,22.43-5,4.57.2,14.12,3.51,12.85,9.88Z"/>
          <g>
            <path class="cls-4" d="m181.88,485.42s-1.64,3.26-12.69,5.09c.46-5.52.46-11.27-.14-17.3-.23-2.42-.52-4.97-.2-7.33l.87-.94s13.94-4.43,12.16,20.49Z"/>
            <path class="cls-4" d="m313.45,499.4c.88-4.34-4.15-5.66-7.42-5.37-3.9.34-7.85,1.64-11.07,3.89-1.83,1.28-3.39,3.03-4.05,5.16-.99,3.2.62,6.59,3.47,8.22,7.13,4.08,14.71-4.65,18.2-9.89.44-.66.73-1.34.87-2.01Z"/>
            <path class="cls-4" d="m334.81,522.54c.88-4.34-4.15-5.66-7.42-5.37-3.9.34-7.85,1.64-11.07,3.89-1.83,1.28-3.39,3.03-4.05,5.16-.99,3.2.62,6.59,3.47,8.22,7.13,4.08,14.71-4.65,18.2-9.89.44-.66.73-1.34.87-2.01Z"/>
            <path class="cls-4" d="m347.66,552.49c1.42-4.19-3.4-6.14-6.68-6.27-3.91-.16-7.99.63-11.48,2.46-1.97,1.03-3.75,2.58-4.67,4.61-1.38,3.05-.22,6.62,2.41,8.6,6.55,4.95,15.18-2.75,19.31-7.51.52-.6.9-1.24,1.12-1.89Z"/>
            <path class="cls-4" d="m334.67,596.55c1.81-3.21-1.82-5.55-4.49-6.16-3.17-.74-6.63-.73-9.77.23-1.77.54-3.47,1.53-4.54,3.04-1.61,2.28-1.21,5.38.63,7.4,4.59,5.06,12.84.11,16.95-3.14.52-.41.92-.87,1.21-1.37Z"/>
          </g>
        </g>
        <g>
          <path class="cls-9" d="m480.42,520.87c-.19,1.67.51,3.32,1.3,4.82,4.09,7.72,10.76,13.04,17.03,18.89,11.78,10.99,24.58,22.1,37.97,31.09-8.08-5.42-16.56-10.43-25.27-14.79-3.3-1.65-35.78-15.75-30.64-.29.61,1.82,1.97,3.28,3.33,4.62,6.68,6.54,14.43,11.76,22.41,16.58,6.45,3.92,16.38,7.25,21.88,12.32l55.19,50.87,30.61,36.92,45.46-43.16s-6.81-12.7-7.56-60.28c-.34-22.02-3.24-41.64,1.78-62.09,1.19-4.93,2.86-9.93,5.13-15.01.9-2.04,1.89-4.17,2.29-6.32.25-1.26.29-2.52.02-3.79-2.67-12.39-19.11,3.17-22.78,7.14-5.64,6.1-10.11,13.45-12.65,21.38-2.32,7.17-1.08,15.61-4.27,22.41-4.97,10.59-16.49,3.66-22.39-1.96-17.39-16.58-34.32-33.63-50.79-51.11-2.98-3.18-6.11-6.5-10.11-8.37-9.59-4.46-16.71,2.28-12.28,11.75,4.14,8.89,10.13,15.34,16.12,23.07,4.01,5.17,10.96,12.76,14.12,19.17-4.83-9.5-18.43-19.99-25.6-26.45-5.73-5.19-12.73-11.8-20.41-13.94-11.62-3.25-12.8,6.23-7.26,15.16,8.75,14.07,20.57,25.86,32.68,37.21-7.48-6.91-15.05-13.74-23.21-19.86-5.34-4.01-11.51-8.97-18.06-10.84-4.03-1.15-13.29-1.03-14.03,4.87Z"/>
          <g>
            <path class="cls-4" d="m525.87,482.36c.49-4.03,5.24-3.72,8.01-2.53,3.29,1.42,6.35,3.7,8.5,6.59,1.22,1.64,2.07,3.62,2.03,5.66-.07,3.07-2.45,5.55-5.4,6.15-7.38,1.48-11.44-8.3-12.97-13.87-.19-.7-.25-1.38-.17-2Z"/>
            <path class="cls-4" d="m500.6,496.3c.49-4.03,5.24-3.72,8.01-2.53,3.29,1.42,6.35,3.7,8.5,6.59,1.22,1.64,2.07,3.62,2.03,5.66-.07,3.07-2.45,5.55-5.4,6.15-7.38,1.48-11.44-8.3-12.97-13.87-.19-.7-.25-1.38-.17-2Z"/>
            <path class="cls-4" d="m480.77,518.63c-.02-4.06,4.73-4.35,7.62-3.52,3.45,1,6.77,2.86,9.27,5.46,1.42,1.47,2.52,3.33,2.73,5.36.32,3.06-1.72,5.82-4.58,6.78-7.13,2.41-12.4-6.79-14.62-12.11-.28-.67-.42-1.33-.42-1.96Z"/>
            <path class="cls-4" d="m479.32,560.7c-.65-3.31,3.19-4.3,5.69-4.06,2.97.28,5.98,1.29,8.43,3.02,1.39.98,2.57,2.33,3.06,3.96.74,2.45-.51,5.02-2.69,6.26-5.46,3.08-11.2-3.62-13.84-7.63-.33-.51-.55-1.03-.65-1.54Z"/>
          </g>
        </g>
      </g>
    </g>
  </g>
</svg>