<?xml version="1.0" encoding="UTF-8"?>
<svg id="Capa_1" data-name="Capa 1" xmlns="http://www.w3.org/2000/svg" viewBox="0 0 1128.98 222.49">
  <defs>
    <style>
      .cls-1 {
        fill: #fff;
      }

      .cls-2 {
        fill: #85b2a3;
      }

      .cls-3 {
        fill: #6663a6;
      }

      .cls-4 {
        fill: #33335f;
      }

      .cls-5 {
        fill: #d1697e;
      }

      .cls-6 {
        fill: #95c5b3;
      }

      .cls-7 {
        fill: #5b5ea3;
      }

      .cls-8 {
        fill: #2e3169;
      }

      .cls-9 {
        fill: #494793;
      }

      .cls-10 {
        fill: #7276b4;
      }
    </style>
  </defs>
  <g>
    <g>
      <path class="cls-9" d="m118.83,173.85h21.62v37.83c0,5.97-4.84,10.81-10.81,10.81h0c-5.97,0-10.81-4.84-10.81-10.81v-37.83h0Z"/>
      <circle class="cls-3" cx="129.64" cy="211.38" r="6.53"/>
    </g>
    <g>
      <path class="cls-9" d="m988.54,173.85h21.62v37.83c0,5.97-4.84,10.81-10.81,10.81h0c-5.97,0-10.81-4.84-10.81-10.81v-37.83h0Z"/>
      <circle class="cls-3" cx="999.35" cy="211.38" r="6.53"/>
    </g>
  </g>
  <g>
    <rect class="cls-7" x="294.06" y="47.29" width="17.83" height="110.01" transform="translate(605.95 204.59) rotate(180)"/>
    <rect class="cls-5" x="172.12" y="38.57" width="15.67" height="118.73" transform="translate(359.9 195.87) rotate(180)"/>
    <rect class="cls-8" x="14.37" y="60.29" width="19.4" height="97.01" transform="translate(48.14 217.59) rotate(180)"/>
    <rect class="cls-2" x="161.02" y="22.65" width="11.2" height="134.65" transform="translate(333.24 179.95) rotate(180)"/>
    <rect class="cls-5" x="33.66" y="13.48" width="11.2" height="143.82" transform="translate(78.53 170.78) rotate(180)"/>
    <rect class="cls-5" x="282.72" y="13.48" width="11.2" height="143.82" transform="translate(576.65 170.78) rotate(180)"/>
    <g>
      <rect class="cls-7" x="150.89" y="48.71" width="10.24" height="108.59" transform="translate(312.01 206.01) rotate(180)"/>
      <rect class="cls-10" x="150.89" y="48.71" width="10.24" height="24.13" transform="translate(312.01 121.55) rotate(180)"/>
    </g>
    <g>
      <rect class="cls-7" x="0" y="44.37" width="14.58" height="112.94" transform="translate(14.58 201.67) rotate(180)"/>
      <rect class="cls-10" x="0" y="44.37" width="14.58" height="25.1" transform="translate(14.58 113.83) rotate(180)"/>
    </g>
    <g>
      <rect class="cls-7" x="266.39" y="6.08" width="16.66" height="151.22" transform="translate(549.43 163.38) rotate(180)"/>
      <rect class="cls-10" x="266.39" y="6.08" width="16.66" height="33.6" transform="translate(549.43 45.77) rotate(180)"/>
    </g>
    <g>
      <rect class="cls-9" x="105.44" y="5.75" width="36.77" height="151.55" transform="translate(254.66 151.25) rotate(174.69)"/>
      <rect class="cls-3" x="106.39" y="18.5" width="26.53" height="36.2" transform="translate(242.18 61.97) rotate(174.69)"/>
      <rect class="cls-1" x="111.51" y="144.5" width="36.77" height="4.78" transform="translate(272.82 281.13) rotate(174.69)"/>
    </g>
    <g>
      <rect class="cls-2" x="45.2" y="26.36" width="36.77" height="130.94" transform="translate(127.17 183.67) rotate(180)"/>
      <rect class="cls-6" x="50.51" y="89.44" width="26.53" height="57.96" transform="translate(127.55 236.84) rotate(180)"/>
    </g>
    <g>
      <rect class="cls-2" x="229.64" y="11.48" width="28.88" height="145.82" transform="translate(476.72 196.51) rotate(-173.34)"/>
      <rect class="cls-6" x="232.68" y="81.53" width="15.93" height="64.55" transform="translate(466.47 254.73) rotate(-173.34)"/>
    </g>
    <g>
      <rect class="cls-9" x="82.05" y="5.75" width="16.02" height="151.55" transform="translate(180.13 163.06) rotate(180)"/>
      <rect class="cls-8" x="82.05" y="32.32" width="16.02" height="31.83" transform="translate(180.13 96.48) rotate(180)"/>
    </g>
    <g>
      <rect class="cls-9" x="311.07" y="5.75" width="16.02" height="151.55" transform="translate(638.17 163.06) rotate(180)"/>
      <rect class="cls-8" x="311.07" y="32.32" width="16.02" height="31.83" transform="translate(638.17 96.48) rotate(180)"/>
    </g>
    <g>
      <rect class="cls-9" x="188.35" width="33.21" height="157.3" transform="translate(409.92 157.3) rotate(180)"/>
      <rect class="cls-8" x="188.35" y="27.58" width="33.21" height="33.04" transform="translate(409.92 88.19) rotate(180)"/>
      <rect class="cls-1" x="188.35" y="138.2" width="33.21" height="7.92" transform="translate(409.92 284.33) rotate(180)"/>
    </g>
  </g>
  <g>
    <rect class="cls-7" x="1095.95" y="47.29" width="17.83" height="110.01" transform="translate(2209.72 204.59) rotate(180)"/>
    <rect class="cls-5" x="974" y="38.57" width="15.67" height="118.73" transform="translate(1963.67 195.87) rotate(180)"/>
    <rect class="cls-8" x="816.25" y="60.29" width="19.4" height="97.01" transform="translate(1651.9 217.59) rotate(180)"/>
    <rect class="cls-2" x="962.9" y="22.65" width="11.2" height="134.65" transform="translate(1937.01 179.95) rotate(180)"/>
    <rect class="cls-5" x="835.55" y="13.48" width="11.2" height="143.82" transform="translate(1682.3 170.78) rotate(180)"/>
    <rect class="cls-5" x="1084.61" y="13.48" width="11.2" height="143.82" transform="translate(2180.41 170.78) rotate(180)"/>
    <g>
      <rect class="cls-7" x="952.77" y="48.71" width="10.24" height="108.59" transform="translate(1915.78 206.01) rotate(180)"/>
      <rect class="cls-10" x="952.77" y="48.71" width="10.24" height="24.13" transform="translate(1915.78 121.55) rotate(180)"/>
    </g>
    <g>
      <rect class="cls-7" x="792.35" y="44.37" width="14.58" height="112.94" transform="translate(1561.52 363.74) rotate(-168.15)"/>
      <rect class="cls-10" x="801.37" y="45.3" width="14.58" height="25.1" transform="translate(1588.2 280.54) rotate(-168.15)"/>
    </g>
    <g>
      <rect class="cls-7" x="1068.27" y="6.08" width="16.66" height="151.22" transform="translate(2153.2 163.38) rotate(180)"/>
      <rect class="cls-10" x="1068.27" y="6.08" width="16.66" height="33.6" transform="translate(2153.2 45.77) rotate(180)"/>
    </g>
    <g>
      <rect class="cls-9" x="907.33" y="5.75" width="36.77" height="151.55" transform="translate(1854.99 77.1) rotate(174.69)"/>
      <rect class="cls-3" x="908.27" y="18.5" width="26.53" height="36.2" transform="translate(1842.51 -12.19) rotate(174.69)"/>
      <rect class="cls-1" x="913.4" y="144.5" width="36.77" height="4.78" transform="translate(1873.15 206.97) rotate(174.69)"/>
    </g>
    <g>
      <rect class="cls-2" x="847.09" y="26.36" width="36.77" height="130.94" transform="translate(1730.94 183.67) rotate(180)"/>
      <rect class="cls-6" x="852.39" y="89.44" width="26.53" height="57.96" transform="translate(1731.32 236.84) rotate(180)"/>
    </g>
    <g>
      <rect class="cls-2" x="1031.52" y="11.48" width="28.88" height="145.82" transform="translate(2075.08 289.47) rotate(-173.34)"/>
      <rect class="cls-6" x="1034.56" y="81.53" width="15.93" height="64.55" transform="translate(2064.83 347.69) rotate(-173.34)"/>
    </g>
    <g>
      <rect class="cls-9" x="883.93" y="5.75" width="16.02" height="151.55" transform="translate(1783.89 163.06) rotate(180)"/>
      <rect class="cls-8" x="883.93" y="32.32" width="16.02" height="31.83" transform="translate(1783.89 96.48) rotate(180)"/>
    </g>
    <g>
      <rect class="cls-9" x="1112.96" y="5.75" width="16.02" height="151.55" transform="translate(2241.94 163.06) rotate(180)"/>
      <rect class="cls-8" x="1112.96" y="32.32" width="16.02" height="31.83" transform="translate(2241.94 96.48) rotate(180)"/>
    </g>
    <g>
      <rect class="cls-9" x="990.24" width="33.21" height="157.3" transform="translate(2013.68 157.3) rotate(180)"/>
      <rect class="cls-8" x="990.24" y="27.58" width="33.21" height="33.04" transform="translate(2013.68 88.19) rotate(180)"/>
      <rect class="cls-1" x="990.24" y="138.2" width="33.21" height="7.92" transform="translate(2013.68 284.33) rotate(180)"/>
    </g>
  </g>
  <rect class="cls-4" x="0" y="155.68" width="1128.98" height="18.34"/>
</svg>